<?xml version="1.0" encoding="utf-8"?>
<svg xmlns="http://www.w3.org/2000/svg" viewBox="291.807 76.353 201.613 248.255" width="201.613px" height="248.255px"><g id="object-1"><rect x="291.807" y="76.353" width="201.613" height="248.255" style="fill: none;"/><g id="object-0" transform="matrix(1, 0, 0, 1, 201.733521, 24.660042)"><path style="stroke-width: 4px; fill: rgb(195, 174, 214); stroke: rgb(94, 92, 100);" d="M 162.518 243.743 C 162.399 243.982 153.47 263.565 152.783 267.007 C 152.055 270.657 161.749 277.509 165.12 278.566 C 168.579 279.651 178.849 277.682 181.652 275.871 C 183.567 274.633 183.793 254.137 183.863 250.32"/><path style="stroke-width: 4px; fill: rgb(195, 174, 214); stroke: rgb(94, 92, 100);" d="M 217.344 276.654 C 217.245 276.456 209.829 260.19 209.258 257.331 C 208.653 254.299 216.705 248.608 219.505 247.73 C 222.378 246.829 230.909 248.465 233.237 249.969 C 234.827 250.997 235.015 268.021 235.073 271.191" transform="matrix(-1, 0, 0, -1, 444.298687, 524.126426)"/><path d="M 129.126 142.884 C 134.786 130.706 180.264 101.24 192.146 100.915 C 206.387 100.526 255.521 125.756 259.58 133.841 C 264.241 143.126 242.156 236.259 238.86 240.889 C 235.011 246.296 207.03 258.745 201.436 259.198 C 194.812 259.734 158.578 249.372 155.446 244.149 C 149.384 234.041 125.092 151.564 129.126 142.884 Z" style="stroke-linejoin: round; stroke-width: 4px; fill-rule: nonzero; fill: rgb(195, 174, 214); stroke: rgb(94, 92, 100);"/><g transform="matrix(1.329788, -0.046834, 0.048926, 1.389223, 78.372644, -100.870522)" style=""><ellipse style="fill: rgb(255, 255, 255); stroke: rgb(94, 92, 100);" cx="68.417" cy="198.684" rx="5.478" ry="7.421"/><ellipse style="stroke: rgb(94, 92, 100); fill: rgb(94, 92, 100);" cx="67.761" cy="198.635" rx="1.195" ry="1.195"/></g><g transform="matrix(1.318471, -0.179344, 0.187359, 1.3774, 77.675693, -90.984422)" style=""><ellipse style="fill: rgb(255, 255, 255); stroke: rgb(94, 92, 100);" cx="68.417" cy="198.684" rx="5.478" ry="7.421"/><ellipse style="stroke: rgb(94, 92, 100); fill: rgb(94, 92, 100);" cx="67.761" cy="198.635" rx="1.195" ry="1.195"/></g><g transform="matrix(1, 0, 0, 1, 103.699097, -48.074917)"><ellipse style="fill: rgb(255, 255, 255); stroke: rgb(94, 92, 100);" cx="68.417" cy="198.684" rx="5.478" ry="7.421"/><ellipse style="stroke: rgb(94, 92, 100); fill: rgb(94, 92, 100);" cx="67.761" cy="198.635" rx="1.195" ry="1.195"/></g><g transform="matrix(1, 0, 0, 1, 122.808098, -60.294922)"><ellipse style="fill: rgb(255, 255, 255); stroke: rgb(94, 92, 100);" cx="68.417" cy="198.684" rx="5.478" ry="7.421"/><ellipse style="stroke: rgb(94, 92, 100); fill: rgb(94, 92, 100);" cx="67.761" cy="198.635" rx="1.195" ry="1.195"/></g><g transform="matrix(1, 0, 0, 1, 143.903091, -50.838917)"><ellipse style="fill: rgb(255, 255, 255); stroke: rgb(94, 92, 100);" cx="68.417" cy="198.684" rx="5.478" ry="7.421"/><ellipse style="stroke: rgb(94, 92, 100); fill: rgb(94, 92, 100);" cx="67.761" cy="198.635" rx="1.195" ry="1.195"/></g><path style="stroke-linecap: round; fill: none; stroke: rgb(94, 92, 100);" d="M 187.654 197.492 C 191.795 200.112 196.444 200.197 201.6 197.746"/><path style="fill: none; stroke-linecap: round; stroke-width: 4px; stroke: rgb(94, 92, 100);" d="M 150.965 122.532 C 140.672 79.4 130.771 64.304 121.263 77.244"/><path style="fill: none; stroke-linecap: round; stroke-width: 4px; stroke: rgb(94, 92, 100);" d="M 264.251 77.704 C 253.958 120.836 243.698 126.938 239.946 107.522" transform="matrix(-1, 0, 0, -1, 504.196986, 195.741902)"/><ellipse style="fill: rgb(94, 92, 100); stroke: rgb(94, 92, 100);" cx="117.096" cy="83.062" rx="6.864" ry="6.864"/><ellipse style="fill: rgb(94, 92, 100); stroke: rgb(94, 92, 100);" cx="264.664" cy="93.659" rx="6.864" ry="6.864"/><path style="stroke-width: 4px; fill: rgb(195, 174, 214); stroke: rgb(94, 92, 100);" d="M 137.217 208.52 C 137.106 208.722 128.793 225.246 128.154 228.151 C 127.476 231.231 136.501 237.012 139.639 237.904 C 142.859 238.82 152.42 237.158 155.03 235.63 C 156.813 234.586 157.023 217.291 157.088 214.07" transform="matrix(0.874833, 0.484424, -0.484424, 0.874833, 126.041879, -41.125091)"/><path style="stroke-width: 4px; fill: rgb(195, 174, 214); stroke: rgb(94, 92, 100);" d="M 233.011 238.166 C 232.9 237.964 224.587 221.44 223.948 218.535 C 223.27 215.455 232.295 209.674 235.433 208.782 C 238.653 207.866 248.214 209.528 250.824 211.056 C 252.607 212.1 252.817 229.395 252.882 232.616" transform="matrix(-0.874833, 0.484424, -0.484424, -0.874833, 555.147267, 303.24557)"/></g></g></svg>