<?xml version="1.0" encoding="utf-8"?>
<svg xmlns="http://www.w3.org/2000/svg" viewBox="-1519.0831 85.8936 207.711 273.374" width="207.711px" height="273.374px"><g transform="matrix(1, 0, 0, 1, -1596.713134765625, -52.72142791748046)" id="object-3" style=""><rect x="77.63" y="138.615" width="207.711" height="273.374" style="fill: none;"/><g transform="matrix(1, 0, 0, 1, -72.900497, 31.254005)" id="object-4"><path d="M 253.804 123.146 C 303.454 123.146 349.688 254.583 333.708 311.026 C 314.044 380.481 202.335 385.327 176.305 311.026 C 156.905 255.663 204.155 123.146 253.804 123.146 Z" style="fill: rgb(237, 241, 214); stroke-width: 12px;" transform="matrix(-1, 0, 0, -1, 508.772008, 488.095985)"><title>Background</title></path><polygon style="fill: rgb(157, 192, 139); stroke-width: 12px;" points="175.674 242.141 191.166 291.807 220.328 343.523 238.098 357.42 241.971 348.079 236.504 315.273 228.985 286.794 218.278 266.974 204.38 250.57 187.977 243.735"/><polygon style="fill: rgb(96, 153, 102); stroke-width: 12px;" points="228.07 288.678 235.797 319.588 239.661 356.845 252.908 363.744 266.983 361.261 270.571 320.967 280.23 289.61"/><polygon style="fill: rgb(157, 192, 139); stroke-width: 12px;" points="263.673 357.42 274.734 302.901 304.529 254.35 326.097 242.345 327.013 251.482 324.503 284.288 316.984 312.767 306.277 332.587 292.379 348.991 275.976 355.826" transform="matrix(-1, 0, 0, -1, 593.643082, 599.561036)"/><path d="M 253.804 123.146 C 303.454 123.146 349.688 254.583 333.708 311.026 C 314.044 380.481 202.335 385.327 176.305 311.026 C 156.905 255.663 204.155 123.146 253.804 123.146 Z" style="stroke: rgb(94, 92, 100); fill: none; stroke-width: 12px;" transform="matrix(-1, 0, 0, -1, 508.771343, 488.095819)"><title>Stroke</title></path><path style="stroke: rgb(94, 92, 100); stroke-linecap: round; fill: none; stroke-width: 12px;" d="M 182.464 241.535 C 218.862 250.735 238.429 291.964 241.164 355.219"><title>Left</title></path><path style="stroke: rgb(94, 92, 100); stroke-linecap: round; fill: none; stroke-width: 12px;" d="M 268.464 354.219 C 304.862 345.019 324.429 304.79 327.164 241.535" transform="matrix(-1, 0, 0, -1, 595.627955, 595.75397)"><title>Right</title></path><ellipse style="fill: rgb(94, 92, 100); stroke-width: 12px;" cx="254.386" cy="197.891" rx="26.141" ry="26.141"/></g></g></svg>